<?xml version="1.0" encoding="UTF-8"?>
<svg width="362px" height="90px" viewBox="0 0 362 90" version="1.1" xmlns="http://www.w3.org/2000/svg" xmlns:xlink="http://www.w3.org/1999/xlink">
    <!-- Generator: Sketch 55.2 (78181) - https://sketchapp.com -->
    <title>PA - Logo</title>
    <desc>Created with Sketch.</desc>
    <defs>
        <circle id="path-1" cx="45" cy="45" r="45"></circle>
        <linearGradient x1="50%" y1="0%" x2="50%" y2="100%" id="linearGradient-3">
            <stop stop-color="#FAD961" offset="0%"></stop>
            <stop stop-color="#F76B1C" offset="100%"></stop>
        </linearGradient>
        <path d="M17.6479813,53.4828145 C14.1473172,49.548633 11.9487789,44.4216251 11.7331103,38.7835898 C11.8757505,38.7895969 11.7151735,35.8148253 11.7151735,35.8148253 L11.7151735,23.5244233 L11.7151735,9.65288276 C11.7151735,4.35939409 16.0251286,0.0296061213 21.2925668,0.0296061213 C26.560005,0.0296061213 30.8703872,4.36153946 30.8703872,9.65288276 L30.8703872,14.8000571 C32.2258962,14.5533395 33.6224037,14.4246172 35.0492328,14.4246172 C40.0826386,14.4246172 44.7444965,16.0267803 48.556065,18.7505435 C46.0449139,16.0877089 42.9892532,14.1259815 39.2289326,13.5321428 L39.2289326,12.4341419 C39.2289326,7.14365672 43.5384607,2.81172337 48.8058989,2.81172337 C54.0741912,2.81172337 58.3837192,7.14194042 58.3837192,12.4341419 L58.3837192,23.5231361 C49.1509686,23.0327042 50.4479695,25.9581323 58.3427208,26.4065148 L58.3653553,38.7887387 C58.1492597,44.4241995 55.9502943,49.5499202 52.4517655,53.4828145 C47.6079773,49.8138008 41.581642,47.6366782 35.0492328,47.6366782 C28.5172508,47.6366782 22.4909154,49.8138008 17.6479813,53.4828145 Z M39.9422833,29.7212424 C39.2555603,29.7212424 38.6141065,29.9297725 38.0785651,30.2867622 C37.1484142,29.9216201 36.1366937,29.7212424 35.0779959,29.7212424 C30.5211963,29.7212424 26.826217,33.4335926 26.826217,38.0113854 C26.826217,42.5896074 30.5211963,46.3019575 35.0779959,46.3019575 C39.6343683,46.3019575 43.3293477,42.5896074 43.3293477,38.0113854 L43.3293477,33.123801 C43.3293477,31.2521792 41.8051473,29.7212424 39.9422833,29.7212424 Z M35.0492328,48.8651177 C50.3501713,48.8651177 62.7594425,61.3322983 62.7594425,76.7055986 C62.7594425,92.0784698 50.3501713,104.54565 35.0492328,104.54565 C19.7482944,104.54565 7.3394502,92.0784698 7.3394502,76.7055986 C7.3394502,61.3322983 19.7482944,48.8651177 35.0492328,48.8651177 Z M52.6935194,54.2444213 C56.5456593,49.8876016 58.8864107,44.1525956 58.8864107,37.8679454 C58.8864107,37.5903344 58.881713,37.3140106 58.8727446,37.0381159 L58.8727446,34.3817174 C60.6805171,30.5530881 61.9984443,25.4024811 61.8481169,18.5733358 C61.784911,15.389176 64.3033222,12.7559475 67.4721556,12.6928736 C70.6426973,12.6302288 73.2631773,15.1596213 73.3259561,18.3450683 C73.9336717,46.062834 54.8070715,54.7292751 54.752407,54.7550196 C54.4103268,54.913777 54.0605593,55.0356341 53.7082294,55.1227362 C53.3763988,54.8223842 53.0381621,54.5293265 52.6935194,54.2444213 Z M0.0528073573,25.5977099 C-0.0876975204,22.4156955 2.36665364,19.7215385 5.53335172,19.5812312 C8.13205136,19.4658102 10.403191,21.1053028 11.2120549,23.4544842 L11.2120549,37.8679454 C11.2120549,44.1530246 13.5532335,49.8876016 17.4058004,54.2448503 C17.2648684,54.3611294 17.1252177,54.4791248 16.985994,54.5979784 C14.2066452,53.3292059 0.916762882,46.2065739 0.0528073573,25.5977099 Z" id="path-4"></path>
    </defs>
    <g id="Clothing" stroke="none" stroke-width="1" fill="none" fill-rule="evenodd">
        <g id="PA---Logo">
            <path d="M116.804,55.276 C119.641348,55.276 121.06,53.3506859 121.06,49.5 C121.06,47.8279916 120.667337,46.4663386 119.882,45.415 C119.096663,44.3636614 118.08334,43.838 116.842,43.838 C115.651327,43.838 114.657004,44.3319951 113.859,45.32 C113.060996,46.3080049 112.662,47.599992 112.662,49.196 C112.662,53.2493536 114.042653,55.276 116.804,55.276 Z M107.988,67.854 L107.988,40.304 L112.738,40.304 L112.776,42.584 C113.916006,40.7346574 115.651322,39.81 117.982,39.81 C119.147339,39.81 120.230328,40.0379977 121.231,40.494 C122.231672,40.9500023 123.086663,41.6086624 123.796,42.47 C124.505337,43.3313376 125.062665,44.3826605 125.468,45.624 C125.873335,46.8653395 126.076,48.2713255 126.076,49.842 C126.076,51.2606738 125.905002,52.5589941 125.563,53.737 C125.220998,54.9150059 124.72067,55.9346624 124.062,56.796 C123.40333,57.6573376 122.599005,58.322331 121.649,58.791 C120.698995,59.259669 119.616006,59.494 118.4,59.494 C116.094655,59.494 114.24534,58.5186764 112.852,56.568 L112.852,67.854 L107.988,67.854 Z M127.862,59 L127.862,40.304 L132.498,40.304 L132.498,42.546 C132.903335,41.9126635 133.327664,41.4186684 133.771,41.064 C134.214336,40.7093316 134.670331,40.4370009 135.139,40.247 C135.607669,40.0569991 136.082664,39.9366669 136.564,39.886 C137.045336,39.8353331 137.539331,39.81 138.046,39.81 L138.692,39.81 L138.692,44.864 C138.235998,44.7879996 137.780002,44.75 137.324,44.75 C134.309318,44.75 132.802,46.2573183 132.802,49.272 L132.802,59 L127.862,59 Z M148.116,55.352 C151.130682,55.352 152.638,53.452019 152.638,49.652 C152.638,45.8773145 151.130682,43.99 148.116,43.99 C145.101318,43.99 143.594,45.8773145 143.594,49.652 C143.594,53.452019 145.101318,55.352 148.116,55.352 Z M148.116,59.494 C146.595992,59.494 145.240673,59.2533357 144.05,58.772 C142.859327,58.2906643 141.852337,57.6193376 141.029,56.758 C140.205663,55.8966624 139.578669,54.8580061 139.148,53.642 C138.717331,52.4259939 138.502,51.0960072 138.502,49.652 C138.502,48.1826593 138.723664,46.8400061 139.167,45.624 C139.610336,44.4079939 140.249996,43.3693376 141.086,42.508 C141.922004,41.6466624 142.928994,40.981669 144.107,40.513 C145.285006,40.044331 146.621326,39.81 148.116,39.81 C149.585341,39.81 150.902661,40.044331 152.068,40.513 C153.233339,40.981669 154.227663,41.6403291 155.051,42.489 C155.874337,43.3376709 156.507664,44.3699939 156.951,45.586 C157.394336,46.8020061 157.616,48.1573259 157.616,49.652 C157.616,51.1466741 157.394336,52.4956606 156.951,53.699 C156.507664,54.9023394 155.874337,55.9346624 155.051,56.796 C154.227663,57.6573376 153.227006,58.322331 152.049,58.791 C150.870994,59.259669 149.560007,59.494 148.116,59.494 Z M159.402,40.304 L164.38,40.304 L164.38,60.254 C164.38,61.3940057 164.190002,62.4263287 163.81,63.351 C163.429998,64.2756713 162.91067,65.0736633 162.252,65.745 C161.59333,66.4163367 160.814338,66.9356648 159.915,67.303 C159.015662,67.6703352 158.046672,67.854 157.008,67.854 C154.449321,67.854 152.555673,67.151007 151.327,65.745 C150.098327,64.338993 149.484,62.4326787 149.484,60.026 L154.12,60.026 C154.12,61.0900053 154.316331,61.9323302 154.709,62.553 C155.101669,63.1736698 155.779329,63.484 156.742,63.484 C157.730005,63.484 158.420331,63.180003 158.813,62.572 C159.205669,61.963997 159.402,61.1280053 159.402,60.064 L159.402,40.304 Z M159.402,38.062 L159.402,33.464 L164.38,33.464 L164.38,38.062 L159.402,38.062 Z M179.124,47.828 C179.098667,47.1439966 178.978334,46.5423359 178.763,46.023 C178.547666,45.5036641 178.262668,45.0730017 177.908,44.731 C177.553332,44.3889983 177.148002,44.1356675 176.692,43.971 C176.235998,43.8063325 175.767336,43.724 175.286,43.724 C174.297995,43.724 173.443004,44.0849964 172.721,44.807 C171.998996,45.5290036 171.587334,46.5359935 171.486,47.828 L179.124,47.828 Z M171.334,50.944 C171.41,52.3626738 171.821663,53.4899958 172.569,54.326 C173.316337,55.1620042 174.297994,55.58 175.514,55.58 C176.324671,55.58 177.04033,55.3963352 177.661,55.029 C178.28167,54.6616648 178.680666,54.14867 178.858,53.49 L183.95,53.49 C183.36733,55.415343 182.354007,56.8973281 180.91,57.936 C179.465993,58.9746719 177.743343,59.494 175.742,59.494 C169.509969,59.494 166.394,56.0993673 166.394,49.31 C166.394,47.8659928 166.596665,46.5613392 167.002,45.396 C167.407335,44.2306608 167.996329,43.2300042 168.769,42.394 C169.541671,41.5579958 170.485328,40.9183356 171.6,40.475 C172.714672,40.0316644 173.993993,39.81 175.438,39.81 C178.326014,39.81 180.510993,40.7346574 181.993,42.584 C183.475007,44.4333426 184.216,47.2199814 184.216,50.944 L171.334,50.944 Z M202.76,52.236 C202.633333,53.3253388 202.323002,54.3133289 201.829,55.2 C201.334998,56.0866711 200.708004,56.8466635 199.948,57.48 C199.187996,58.1133365 198.320338,58.6073316 197.345,58.962 C196.369662,59.3166684 195.312006,59.494 194.172,59.494 C192.905327,59.494 191.746339,59.2850021 190.695,58.867 C189.643661,58.4489979 188.738004,57.8156709 187.978,56.967 C187.217996,56.1183291 186.629002,55.0670063 186.211,53.813 C185.792998,52.5589937 185.584,51.0960084 185.584,49.424 C185.584,47.7519916 185.792998,46.3080061 186.211,45.092 C186.629002,43.8759939 187.217996,42.8816705 187.978,42.109 C188.738004,41.3363295 189.656328,40.7600019 190.733,40.38 C191.809672,39.9999981 193.00666,39.81 194.324,39.81 C195.540006,39.81 196.648328,39.974665 197.649,40.304 C198.649672,40.633335 199.523663,41.1146635 200.271,41.748 C201.018337,42.3813365 201.607331,43.1413289 202.038,44.028 C202.468669,44.9146711 202.722,45.9026612 202.798,46.992 L197.82,46.992 C197.693333,46.0293285 197.307003,45.2756694 196.661,44.731 C196.014997,44.1863306 195.223338,43.914 194.286,43.914 C193.753997,43.914 193.260002,44.0026658 192.804,44.18 C192.347998,44.3573342 191.949002,44.6549979 191.607,45.073 C191.264998,45.4910021 190.992668,46.0483298 190.79,46.745 C190.587332,47.4416702 190.486,48.2966616 190.486,49.31 C190.486,51.3620103 190.85333,52.8819951 191.588,53.87 C192.32267,54.8580049 193.171329,55.352 194.134,55.352 C195.096671,55.352 195.919997,55.0860027 196.604,54.554 C197.288003,54.0219973 197.680666,53.2493384 197.782,52.236 L202.76,52.236 Z M214.806,46.688 L219.404,46.688 L219.404,52.008 C219.404,52.9960049 219.258335,53.9396622 218.967,54.839 C218.675665,55.7383378 218.21967,56.5363299 217.599,57.233 C216.97833,57.9296701 216.193005,58.4806646 215.243,58.886 C214.292995,59.2913354 213.15934,59.494 211.842,59.494 C210.473993,59.494 209.308671,59.2913354 208.346,58.886 C207.383329,58.4806646 206.59167,57.9360034 205.971,57.252 C205.35033,56.5679966 204.900668,55.7700046 204.622,54.858 C204.343332,53.9459954 204.204,52.9833384 204.204,51.97 L204.204,35.25 L209.068,35.25 L209.068,40.304 L219.404,40.304 L219.404,43.8 L209.068,43.8 L209.068,51.476 C209.068,52.6666726 209.289664,53.5849968 209.733,54.231 C210.176336,54.8770032 210.904662,55.2 211.918,55.2 C212.906005,55.2 213.634331,54.8833365 214.103,54.25 C214.571669,53.6166635 214.806,52.7173392 214.806,51.552 L214.806,46.688 Z M232.78,49.842 C232.526665,50.0953346 232.159336,50.2979992 231.678,50.45 C231.196664,50.6020008 230.500005,50.7666658 229.588,50.944 C228.169326,51.2226681 227.194003,51.5773312 226.662,52.008 C226.129997,52.4386688 225.864,53.0593293 225.864,53.87 C225.864,55.2633403 226.661992,55.96 228.258,55.96 C228.891336,55.96 229.480331,55.8523344 230.025,55.637 C230.569669,55.4216656 231.038331,55.1303352 231.431,54.763 C231.823669,54.3956648 232.140332,53.9650025 232.381,53.471 C232.621668,52.9769975 232.742,52.4513361 232.742,51.894 L232.78,49.842 Z M233.122,59 C232.969999,58.5186643 232.868667,57.9613365 232.818,57.328 C232.23533,57.98667 231.462671,58.5123314 230.5,58.905 C229.537329,59.2976686 228.422673,59.494 227.156,59.494 C225.002656,59.494 223.425672,59.0190048 222.425,58.069 C221.424328,57.1189953 220.924,55.8840076 220.924,54.364 C220.924,53.0213266 221.139331,51.951004 221.57,51.153 C222.000669,50.354996 222.595996,49.7280023 223.356,49.272 C224.116004,48.8159977 225.021661,48.4803344 226.073,48.265 C227.124339,48.0496656 228.27066,47.8533342 229.512,47.676 C230.75334,47.4986658 231.589331,47.2643348 232.02,46.973 C232.450669,46.6816652 232.666,46.20667 232.666,45.548 C232.666,44.939997 232.381003,44.4650017 231.811,44.123 C231.240997,43.7809983 230.474671,43.61 229.512,43.61 C228.371994,43.61 227.555002,43.8633308 227.061,44.37 C226.566998,44.8766692 226.256667,45.5479958 226.13,46.384 L221.532,46.384 C221.557333,45.4213285 221.715665,44.5346707 222.007,43.724 C222.298335,42.9133293 222.766997,42.2166696 223.413,41.634 C224.059003,41.0513304 224.901328,40.6016682 225.94,40.285 C226.978672,39.9683317 228.245326,39.81 229.74,39.81 C231.209341,39.81 232.456995,39.974665 233.483,40.304 C234.509005,40.633335 235.33233,41.1083302 235.953,41.729 C236.57367,42.3496698 237.023332,43.1223287 237.302,44.047 C237.580668,44.9716713 237.72,46.0166608 237.72,47.182 L237.72,59 L233.122,59 Z M256.72,52.236 C256.593333,53.3253388 256.283002,54.3133289 255.789,55.2 C255.294998,56.0866711 254.668004,56.8466635 253.908,57.48 C253.147996,58.1133365 252.280338,58.6073316 251.305,58.962 C250.329662,59.3166684 249.272006,59.494 248.132,59.494 C246.865327,59.494 245.706339,59.2850021 244.655,58.867 C243.603661,58.4489979 242.698004,57.8156709 241.938,56.967 C241.177996,56.1183291 240.589002,55.0670063 240.171,53.813 C239.752998,52.5589937 239.544,51.0960084 239.544,49.424 C239.544,47.7519916 239.752998,46.3080061 240.171,45.092 C240.589002,43.8759939 241.177996,42.8816705 241.938,42.109 C242.698004,41.3363295 243.616328,40.7600019 244.693,40.38 C245.769672,39.9999981 246.96666,39.81 248.284,39.81 C249.500006,39.81 250.608328,39.974665 251.609,40.304 C252.609672,40.633335 253.483663,41.1146635 254.231,41.748 C254.978337,42.3813365 255.567331,43.1413289 255.998,44.028 C256.428669,44.9146711 256.682,45.9026612 256.758,46.992 L251.78,46.992 C251.653333,46.0293285 251.267003,45.2756694 250.621,44.731 C249.974997,44.1863306 249.183338,43.914 248.246,43.914 C247.713997,43.914 247.220002,44.0026658 246.764,44.18 C246.307998,44.3573342 245.909002,44.6549979 245.567,45.073 C245.224998,45.4910021 244.952668,46.0483298 244.75,46.745 C244.547332,47.4416702 244.446,48.2966616 244.446,49.31 C244.446,51.3620103 244.81333,52.8819951 245.548,53.87 C246.28267,54.8580049 247.131329,55.352 248.094,55.352 C249.056671,55.352 249.879997,55.0860027 250.564,54.554 C251.248003,54.0219973 251.640666,53.2493384 251.742,52.236 L256.72,52.236 Z M269.526,49.842 C269.272665,50.0953346 268.905336,50.2979992 268.424,50.45 C267.942664,50.6020008 267.246005,50.7666658 266.334,50.944 C264.915326,51.2226681 263.940003,51.5773312 263.408,52.008 C262.875997,52.4386688 262.61,53.0593293 262.61,53.87 C262.61,55.2633403 263.407992,55.96 265.004,55.96 C265.637336,55.96 266.226331,55.8523344 266.771,55.637 C267.315669,55.4216656 267.784331,55.1303352 268.177,54.763 C268.569669,54.3956648 268.886332,53.9650025 269.127,53.471 C269.367668,52.9769975 269.488,52.4513361 269.488,51.894 L269.526,49.842 Z M269.868,59 C269.715999,58.5186643 269.614667,57.9613365 269.564,57.328 C268.98133,57.98667 268.208671,58.5123314 267.246,58.905 C266.283329,59.2976686 265.168673,59.494 263.902,59.494 C261.748656,59.494 260.171672,59.0190048 259.171,58.069 C258.170328,57.1189953 257.67,55.8840076 257.67,54.364 C257.67,53.0213266 257.885331,51.951004 258.316,51.153 C258.746669,50.354996 259.341996,49.7280023 260.102,49.272 C260.862004,48.8159977 261.767661,48.4803344 262.819,48.265 C263.870339,48.0496656 265.01666,47.8533342 266.258,47.676 C267.49934,47.4986658 268.335331,47.2643348 268.766,46.973 C269.196669,46.6816652 269.412,46.20667 269.412,45.548 C269.412,44.939997 269.127003,44.4650017 268.557,44.123 C267.986997,43.7809983 267.220671,43.61 266.258,43.61 C265.117994,43.61 264.301002,43.8633308 263.807,44.37 C263.312998,44.8766692 263.002667,45.5479958 262.876,46.384 L258.278,46.384 C258.303333,45.4213285 258.461665,44.5346707 258.753,43.724 C259.044335,42.9133293 259.512997,42.2166696 260.159,41.634 C260.805003,41.0513304 261.647328,40.6016682 262.686,40.285 C263.724672,39.9683317 264.991326,39.81 266.486,39.81 C267.955341,39.81 269.202995,39.974665 270.229,40.304 C271.255005,40.633335 272.07833,41.1083302 272.699,41.729 C273.31967,42.3496698 273.769332,43.1223287 274.048,44.047 C274.326668,44.9716713 274.466,46.0166608 274.466,47.182 L274.466,59 L269.868,59 Z M285.486,55.466 C286.676673,55.466 287.670996,54.9720049 288.469,53.984 C289.267004,52.9959951 289.666,51.704008 289.666,50.108 C289.666,46.0546464 288.285347,44.028 285.524,44.028 C282.686652,44.028 281.268,45.9533141 281.268,49.804 C281.268,51.4760084 281.660663,52.8376614 282.446,53.889 C283.231337,54.9403386 284.24466,55.466 285.486,55.466 Z M289.59,59 L289.552,56.72 C288.411994,58.5693426 286.676678,59.494 284.346,59.494 C283.155327,59.494 282.066005,59.2660023 281.078,58.81 C280.089995,58.3539977 279.241337,57.6953376 278.532,56.834 C277.822663,55.9726624 277.265335,54.9213395 276.86,53.68 C276.454665,52.4386605 276.252,51.0326745 276.252,49.462 C276.252,48.0433262 276.422998,46.7450059 276.765,45.567 C277.107002,44.3889941 277.60733,43.3693376 278.266,42.508 C278.92467,41.6466624 279.728995,40.981669 280.679,40.513 C281.629005,40.044331 282.711994,39.81 283.928,39.81 C286.233345,39.81 288.08266,40.7853236 289.476,42.736 L289.476,33.464 L294.34,33.464 L294.34,59 L289.59,59 Z M308.818,47.828 C308.792667,47.1439966 308.672334,46.5423359 308.457,46.023 C308.241666,45.5036641 307.956668,45.0730017 307.602,44.731 C307.247332,44.3889983 306.842002,44.1356675 306.386,43.971 C305.929998,43.8063325 305.461336,43.724 304.98,43.724 C303.991995,43.724 303.137004,44.0849964 302.415,44.807 C301.692996,45.5290036 301.281334,46.5359935 301.18,47.828 L308.818,47.828 Z M301.028,50.944 C301.104,52.3626738 301.515663,53.4899958 302.263,54.326 C303.010337,55.1620042 303.991994,55.58 305.208,55.58 C306.018671,55.58 306.73433,55.3963352 307.355,55.029 C307.97567,54.6616648 308.374666,54.14867 308.552,53.49 L313.644,53.49 C313.06133,55.415343 312.048007,56.8973281 310.604,57.936 C309.159993,58.9746719 307.437343,59.494 305.436,59.494 C299.203969,59.494 296.088,56.0993673 296.088,49.31 C296.088,47.8659928 296.290665,46.5613392 296.696,45.396 C297.101335,44.2306608 297.690329,43.2300042 298.463,42.394 C299.235671,41.5579958 300.179328,40.9183356 301.294,40.475 C302.408672,40.0316644 303.687993,39.81 305.132,39.81 C308.020014,39.81 310.204993,40.7346574 311.687,42.584 C313.169007,44.4333426 313.91,47.2199814 313.91,50.944 L301.028,50.944 Z M337.546,59 L337.546,47.676 C337.546,46.5359943 337.280003,45.6113369 336.748,44.902 C336.215997,44.1926631 335.506671,43.838 334.62,43.838 C333.707995,43.838 332.954336,44.2179962 332.359,44.978 C331.763664,45.7380038 331.466,46.6879943 331.466,47.828 L331.466,59 L326.526,59 L326.526,47.752 C326.526,46.9919962 326.475334,46.3713357 326.374,45.89 C326.272666,45.4086643 326.101668,45.0286681 325.861,44.75 C325.620332,44.4713319 325.310002,44.2750006 324.93,44.161 C324.549998,44.0469994 324.094003,43.99 323.562,43.99 C321.560657,43.99 320.56,45.2059878 320.56,47.638 L320.56,59 L315.62,59 L315.62,40.304 L320.256,40.304 L320.256,43.04 C320.889336,41.7986605 321.649329,40.9500023 322.536,40.494 C323.422671,40.0379977 324.48666,39.81 325.728,39.81 C326.361336,39.81 326.924998,39.8606662 327.419,39.962 C327.913002,40.0633338 328.356331,40.2343321 328.749,40.475 C329.141669,40.7156679 329.515332,41.0259981 329.87,41.406 C330.224668,41.7860019 330.579332,42.2419973 330.934,42.774 C331.440669,41.7353281 332.111996,40.981669 332.948,40.513 C333.784004,40.044331 334.797327,39.81 335.988,39.81 C336.925338,39.81 337.786663,39.9683317 338.572,40.285 C339.357337,40.6016682 340.028664,41.0449971 340.586,41.615 C341.143336,42.1850029 341.580332,42.8499962 341.897,43.61 C342.213668,44.3700038 342.372,45.1806624 342.372,46.042 L342.372,59 L337.546,59 Z M356.166,56.53 C355.811332,57.3660042 355.171671,58.018331 354.247,58.487 C353.322329,58.955669 352.277339,59.19 351.112,59.19 C350.123995,59.19 349.212004,59.0316682 348.376,58.715 C347.539996,58.3983318 346.818003,57.9423363 346.21,57.347 C345.601997,56.7516637 345.127002,56.0423374 344.785,55.219 C344.442998,54.3956625 344.272,53.4646719 344.272,52.426 L344.272,40.304 L349.212,40.304 L349.212,51.704 C349.212,54.0346783 350.263323,55.2 352.366,55.2 C353.506006,55.2 354.42433,54.87067 355.121,54.212 C355.81767,53.55333 356.166,52.7173384 356.166,51.704 L356.166,40.304 L361.106,40.304 L361.106,59.494 C361.106,60.8113399 360.884336,61.9893281 360.441,63.028 C359.997664,64.0666719 359.389671,64.9406631 358.617,65.65 C357.844329,66.3593369 356.932339,66.9039981 355.881,67.284 C354.829661,67.6640019 353.708673,67.854 352.518,67.854 C349.756653,67.854 347.692007,67.1573403 346.324,65.764 C344.955993,64.3706597 344.272,62.4580122 344.272,60.026 L348.87,60.026 C348.87,61.1406722 349.192997,62.0146635 349.839,62.648 C350.485003,63.2813365 351.453994,63.598 352.746,63.598 C353.202002,63.598 353.632665,63.503001 354.038,63.313 C354.443335,63.122999 354.804332,62.8570017 355.121,62.515 C355.437668,62.1729983 355.690999,61.7486692 355.881,61.242 C356.071001,60.7353308 356.166,60.178003 356.166,59.57 L356.166,56.53 Z" id="projectacademy" fill="#080C1F" fill-rule="nonzero"></path>
            <g id="Group-2-Copy-+-Oval-Copy-5-Mask-Copy-Copy">
                <mask id="mask-2" fill="white">
                    <use xlink:href="#path-1"></use>
                </mask>
                <use id="Mask" fill="#D8D8D8" xlink:href="#path-1"></use>
                <g id="Group-2-Copy" mask="url(#mask-2)">
                    <g transform="translate(10.000000, 17.000000)">
                        <rect id="Rectangle" fill="#00FEFF" x="20.5518497" y="52.5" width="26.0149996" height="23.9108911"></rect>
                        <g id="Orange-Wilfred" stroke-width="1" fill="none">
                            <g id="Group">
                                <g id="Wilfred-Clear" transform="translate(36.807212, 52.572799) scale(1, -1) translate(-36.807212, -52.572799) translate(0.022329, 0.287963)">
                                    <mask id="mask-5" fill="white">
                                        <use xlink:href="#path-4"></use>
                                    </mask>
                                    <use id="Combined-Shape" stroke="#1F1101" stroke-width="3" fill="url(#linearGradient-3)" xlink:href="#path-4"></use>
                                </g>
                                <path d="M15.4594135,27.6628071 C15.4594135,40.6631098 24.982281,41.1822878 35.5525508,41.1337744 L35.5525508,41.1337744 C46.0600519,41.0856866 55.361973,40.5741686 55.361973,27.6628071 L55.361973,27.6628071 C55.361973,15.5089349 46.5940053,10.7022827 35.9990464,10.6622804 L35.9990464,10.6622804 C35.9454837,10.6622804 35.891084,10.6618549 35.8375213,10.6618549 L35.8375213,10.6618549 C24.9638688,10.6614293 15.4594135,14.8697501 15.4594135,27.6628071" id="path54-path" stroke="#1F1101" stroke-width="4" fill="#FAF0DC"></path>
                            </g>
                        </g>
                    </g>
                </g>
                <circle id="Oval-Copy-5" stroke="#C6C6C6" stroke-width="2" mask="url(#mask-2)" cx="45" cy="45" r="44"></circle>
            </g>
        </g>
    </g>
</svg>